<?xml version="1.0" standalone="no"?>
<!DOCTYPE svg PUBLIC "-//W3C//DTD SVG 20010904//EN"
 "http://www.w3.org/TR/2001/REC-SVG-20010904/DTD/svg10.dtd">
<svg version="1.0" xmlns="http://www.w3.org/2000/svg"
 width="1772.000000pt" height="496.000000pt" viewBox="0 0 1772.000000 496.000000"
 preserveAspectRatio="xMidYMid meet">
<metadata>
Created by potrace 1.16, written by Peter Selinger 2001-2019
</metadata>
<g transform="translate(0.000000,496.000000) scale(0.100000,-0.100000)"
fill="#000000" stroke="none">
<path d="M2251 4937 c-5 -13 -167 -288 -360 -611 l-352 -586 -760 0 c-761 0
-761 0 -746 -22 8 -13 178 -296 377 -631 231 -386 360 -614 357 -625 -6 -25
-727 -1238 -749 -1262 -10 -11 -18 -22 -18 -25 0 -3 350 -5 779 -5 l778 0 347
-569 c190 -313 346 -573 346 -579 0 -25 21 -21 32 7 7 16 164 279 348 585
l335 556 768 0 c422 0 767 3 767 7 0 3 -6 14 -14 22 -15 18 -756 1249 -756
1257 0 6 733 1229 756 1262 16 22 16 22 -754 22 l-770 0 -341 594 c-188 326
-341 598 -341 604 0 23 -21 22 -29 -1z m-824 -1381 c-3 -8 -90 -157 -193 -332
-103 -176 -218 -372 -256 -438 -68 -114 -71 -118 -88 -100 -22 24 -520 860
-520 874 0 7 171 10 531 10 450 0 530 -2 526 -14z m2720 -5 c-4 -15 -419 -719
-504 -855 -21 -32 -27 -36 -38 -25 -19 20 -525 877 -525 889 0 7 176 10 536
10 520 0 536 -1 531 -19z m-1249 -1105 c342 -574 622 -1049 622 -1055 0 -8
-98 -11 -330 -11 -329 0 -329 0 -622 -490 -161 -270 -297 -490 -303 -490 -5 0
-142 221 -303 490 -293 490 -293 490 -628 490 -209 0 -334 4 -332 10 11 33
1255 2100 1263 2100 6 0 291 -470 633 -1044z"/>
<path d="M2243 3275 c-25 -52 -1041 -1755 -1059 -1776 -8 -8 -14 -20 -14 -25
0 -5 141 -8 347 -7 348 1 348 1 543 324 107 177 200 322 205 322 6 0 98 -145
205 -322 195 -323 195 -323 548 -324 193 -1 352 0 352 2 0 3 -11 21 -24 40
-19 27 -1031 1715 -1075 1791 -6 12 -13 6 -28 -25z"/>
<path d="M15693 3568 c-2 -5 7 -23 20 -40 63 -84 627 -979 627 -995 0 -10
-146 -197 -325 -416 -325 -397 -325 -397 -325 -591 0 -107 3 -197 8 -199 18
-9 571 15 577 25 0 2 89 141 196 310 114 181 200 308 209 308 9 0 103 -133
220 -309 233 -351 162 -314 613 -326 207 -6 207 -6 207 192 0 197 0 197 -34
233 -52 54 -637 743 -647 761 -6 13 66 133 296 495 168 264 317 494 331 512
14 18 24 36 21 39 -3 3 -117 4 -254 4 -223 -1 -249 -3 -260 -19 -36 -51 -480
-576 -490 -579 -9 -3 -443 502 -495 576 -13 19 -28 20 -252 23 -131 2 -240 0
-243 -4z"/>
<path d="M6030 3548 c-5 -13 -165 -500 -354 -1083 -190 -583 -353 -1075 -361
-1094 -9 -19 -12 -37 -8 -40 4 -3 135 -5 291 -3 259 2 282 4 282 20 0 9 36
161 79 337 78 320 78 320 347 320 268 0 268 0 341 -320 40 -176 73 -328 73
-338 0 -16 19 -17 293 -15 188 2 291 7 290 13 -2 6 -12 35 -22 65 -11 30 -146
469 -300 975 -294 966 -350 1152 -357 1173 -3 9 -70 12 -294 12 -290 0 -290 0
-300 -22z m378 -798 c43 -195 77 -361 75 -367 -6 -16 -338 -19 -348 -4 -3 5
31 157 75 337 101 413 100 408 110 398 4 -5 44 -169 88 -364z"/>
<path d="M12628 3462 c-133 -2 -178 -6 -178 -15 0 -17 -39 -1837 -42 -1975 -3
-114 -3 -114 221 -114 122 0 224 2 226 4 6 7 -36 2093 -43 2098 -4 3 -87 4
-184 2z"/>
<path d="M13550 2095 l0 -740 870 0 c871 0 871 0 865 35 -7 45 -35 316 -35
341 0 19 -9 19 -222 17 -223 -3 -223 -3 -220 -44 2 -23 -1 -45 -7 -48 -10 -6
-613 -35 -739 -36 -62 0 -62 0 -60 168 3 167 3 167 612 169 335 2 610 4 612 6
2 2 -14 155 -36 340 -40 337 -40 337 -138 432 -98 95 -98 95 -800 98 l-702 2
0 -740z m1255 320 c0 -140 0 -140 -415 -140 -415 0 -415 0 -418 134 -2 101 1
136 10 143 7 4 195 7 418 5 405 -2 405 -2 405 -142z"/>
<path d="M7720 2093 c0 -738 0 -738 230 -738 127 0 230 3 230 7 0 3 -16 253
-35 554 -19 301 -35 564 -35 585 0 39 0 39 465 39 465 0 465 0 465 -26 0 -41
-59 -1044 -65 -1104 -5 -55 -5 -55 240 -55 245 0 245 0 245 656 0 537 -2 658
-13 662 -8 3 -62 39 -120 81 -107 76 -107 76 -857 76 l-750 0 0 -737z"/>
<path d="M9979 2826 c-2 -2 -3 -334 -1 -738 l2 -733 868 2 867 3 3 635 c2 634
2 634 -140 735 -141 100 -141 100 -868 100 -400 0 -729 -2 -731 -4z m1281
-731 l0 -445 -400 0 -400 0 0 445 0 445 400 0 400 0 0 -445z"/>
</g>
</svg>
